<?xml version="1.0" encoding="iso-8859-1"?>
<!-- Generator: Adobe Illustrator 19.0.0, SVG Export Plug-In . SVG Version: 6.00 Build 0)  -->
<svg version="1.1" id="Layer_1" xmlns="http://www.w3.org/2000/svg" xmlns:xlink="http://www.w3.org/1999/xlink" x="0px" y="0px"
	 viewBox="0 0 512 512" style="enable-background:new 0 0 512 512;" xml:space="preserve">
<path style="fill:#F8A805;" d="M256,13.838H13.838V256h76.108v31.135c0,24.838,20.135,44.973,44.973,44.973l0,0
	c24.838,0,44.973-20.135,44.973-44.973V256H256V13.838z"/>
<path style="fill:#4898DA;" d="M498.162,256V13.838H256v76.108h-31.135c-24.838,0-44.973,20.135-44.973,44.973l0,0
	c0,24.838,20.135,44.973,44.973,44.973H256V256H498.162z"/>
<path style="fill:#D25256;" d="M256,498.162h242.162V256h-76.108v-31.135c0-24.838-20.135-44.973-44.973-44.973l0,0
	c-24.838,0-44.973,20.135-44.973,44.973V256H256V498.162z"/>
<path style="fill:#3EAF64;" d="M13.838,256v242.162H256v-76.108h31.135c24.838,0,44.973-20.135,44.973-44.973l0,0
	c0-24.838-20.135-44.973-44.973-44.973H256V256H13.838z"/>
<path style="fill:#F8A805;" d="M13.838,256h76.108v31.135c0,24.838,20.135,44.973,44.973,44.973l0,0
	c24.838,0,44.973-20.135,44.973-44.973V256H256H13.838z"/>
<path style="fill:#231F20;" d="M498.162,0H256H13.838C6.195,0,0,6.195,0,13.838V256v242.162C0,505.805,6.195,512,13.838,512H256
	h242.162c7.643,0,13.838-6.195,13.838-13.838V256V13.838C512,6.195,505.805,0,498.162,0z M484.324,242.162h-48.432v-17.297
	c0-32.429-26.382-58.811-58.811-58.811s-58.811,26.382-58.811,58.811v17.297h-48.432v-62.27c0-7.643-6.195-13.838-13.838-13.838
	h-31.135c-17.169,0-31.135-13.967-31.135-31.135s13.967-31.135,31.135-31.135H256c7.643,0,13.838-6.195,13.838-13.838v-62.27
	h214.487V242.162z M27.676,27.676h214.486v48.432h-17.297c-32.429,0-58.811,26.382-58.811,58.811s26.382,58.811,58.811,58.811
	h17.297v48.432h-62.27c-7.643,0-13.838,6.195-13.838,13.838v31.135c0,17.169-13.967,31.135-31.135,31.135
	s-31.135-13.967-31.135-31.135V256c0-7.643-6.195-13.838-13.838-13.838h-62.27V27.676z M27.676,269.838h48.432v17.297
	c0,32.429,26.382,58.811,58.811,58.811s58.811-26.382,58.811-58.811v-17.297h48.432v62.27c0,7.643,6.195,13.838,13.838,13.838
	h31.135c17.169,0,31.135,13.967,31.135,31.135c0,17.169-13.967,31.135-31.135,31.135H256c-7.643,0-13.838,6.195-13.838,13.838v62.27
	H27.676V269.838z M484.324,484.324H269.838v-48.432h17.297c32.429,0,58.811-26.382,58.811-58.811s-26.382-58.811-58.811-58.811
	h-17.297v-48.432h62.27c7.643,0,13.838-6.195,13.838-13.838v-31.135c0-17.169,13.967-31.135,31.135-31.135
	c17.169,0,31.135,13.967,31.135,31.135V256c0,7.643,6.195,13.838,13.838,13.838h62.27V484.324z"/>
<g>
</g>
<g>
</g>
<g>
</g>
<g>
</g>
<g>
</g>
<g>
</g>
<g>
</g>
<g>
</g>
<g>
</g>
<g>
</g>
<g>
</g>
<g>
</g>
<g>
</g>
<g>
</g>
<g>
</g>
</svg>
