<?xml version="1.0" encoding="iso-8859-1"?>
<!-- Generator: Adobe Illustrator 19.0.0, SVG Export Plug-In . SVG Version: 6.00 Build 0)  -->
<svg version="1.1" id="Layer_1" xmlns="http://www.w3.org/2000/svg" xmlns:xlink="http://www.w3.org/1999/xlink" x="0px" y="0px"
	 viewBox="0 0 512.035 512.035" style="enable-background:new 0 0 512.035 512.035;" xml:space="preserve">
<g transform="translate(1)">
	<path style="fill:#C66900;" d="M109.933,256.035L255,401.101H109.933V256.035z M7.533,8.568v494.933h494.933L7.533,8.568z"/>
	<g>
		<path style="fill:#A14500;" d="M50.2,87.075c-3.413,3.413-3.413,8.533,0,11.947c1.707,1.707,4.267,2.56,5.973,2.56
			s4.267-0.853,5.973-2.56l17.92-17.92l0,0L68.12,69.155l0,0L50.2,87.075z"/>
		<path style="fill:#A14500;" d="M68.12,141.688c1.707,1.707,4.267,2.56,5.973,2.56c2.56,0,4.267-0.853,5.973-2.56l29.867-30.72
			L97.987,99.021L68.12,128.888C64.707,132.301,64.707,138.275,68.12,141.688"/>
		<path style="fill:#A14500;" d="M109.933,159.608c1.707,1.707,4.267,2.56,5.973,2.56c2.56,0,4.267-0.853,5.973-2.56l17.92-17.92
			l-11.947-11.947l-17.92,17.92C106.52,151.075,106.52,156.195,109.933,159.608"/>
		<path style="fill:#A14500;" d="M128.707,201.421c1.707,1.707,4.267,2.56,5.973,2.56c2.56,0,4.267-0.853,5.973-2.56l29.867-29.867
			l-11.947-11.947l-29.867,29.867C125.293,192.888,125.293,198.008,128.707,201.421"/>
		<path style="fill:#A14500;" d="M170.52,220.195c1.707,1.707,4.267,2.56,5.973,2.56c1.707,0,4.267-0.853,5.973-2.56l17.92-17.92
			l-11.947-11.947l-17.92,17.92C167.107,210.808,167.107,216.781,170.52,220.195"/>
		<path style="fill:#A14500;" d="M188.44,250.061c-3.413,3.413-3.413,8.533,0,11.947c1.707,1.707,4.267,2.56,5.973,2.56
			c2.56,0,4.267-0.853,5.973-2.56l29.867-29.867l0,0l-11.947-11.947l0,0L188.44,250.061z"/>
		<path style="fill:#A14500;" d="M231.107,279.928c1.707,1.707,4.267,2.56,5.973,2.56c2.56,0,4.267-0.853,5.973-2.56l17.92-17.92
			l-11.947-11.947l-17.92,17.92C227.693,271.395,227.693,276.515,231.107,279.928"/>
		<path style="fill:#A14500;" d="M249.027,322.595c1.707,1.707,4.267,2.56,5.973,2.56s4.267-0.853,5.973-2.56l29.867-29.867
			l-11.947-11.947l-29.867,29.867C245.613,314.061,245.613,319.181,249.027,322.595"/>
		<path style="fill:#A14500;" d="M290.84,340.515c1.707,1.707,4.267,2.56,5.973,2.56c1.707,0,4.267-0.853,5.973-2.56l17.92-17.92
			l-11.947-11.947l-17.92,17.92C288.28,331.981,288.28,337.101,290.84,340.515"/>
		<path style="fill:#A14500;" d="M309.613,382.328c1.707,1.707,4.267,2.56,5.973,2.56s4.267-0.853,5.973-2.56l29.867-29.867
			l-11.947-11.947l-29.867,29.867C306.2,373.795,306.2,379.768,309.613,382.328"/>
		<path style="fill:#A14500;" d="M351.427,389.155c-3.413,3.413-3.413,8.533,0,11.947c1.707,1.707,4.267,2.56,5.973,2.56
			s4.267-0.853,5.973-2.56l17.92-17.92l0,0l-11.947-11.947l0,0L351.427,389.155z"/>
		<path style="fill:#A14500;" d="M369.347,442.915c1.707,1.707,4.267,2.56,5.973,2.56s4.267-0.853,5.973-2.56l29.867-29.867
			l-11.093-11.947L370.2,430.968C365.933,434.381,365.933,439.501,369.347,442.915"/>
		<path style="fill:#A14500;" d="M412.013,460.835c1.707,1.707,4.267,2.56,5.973,2.56c1.707,0,4.267-0.853,5.973-2.56l17.92-17.92
			l-11.947-11.947l-17.92,17.92C408.6,452.301,408.6,458.275,412.013,460.835"/>
	</g>
	<path d="M502.467,512.035H7.533c-5.12,0-8.533-3.413-8.533-8.533V8.568c0-3.413,1.707-6.827,5.12-7.68
		c3.413-1.707,6.827-0.853,9.387,1.707L508.44,497.528c2.56,2.56,3.413,5.973,1.707,9.387
		C509.293,510.328,505.88,512.035,502.467,512.035z M16.067,494.968h465.92L16.067,29.048V494.968z"/>
	<path d="M255,409.635H109.933c-5.12,0-8.533-3.413-8.533-8.533V256.035c0-3.413,1.707-6.827,5.12-7.68
		c3.413-1.707,6.827-0.853,9.387,1.707l145.067,145.067c2.56,2.56,3.413,5.973,1.707,9.387
		C261.827,407.928,258.413,409.635,255,409.635z M118.467,392.568H234.52L118.467,276.515V392.568z"/>
	<path d="M56.173,101.581c-2.56,0-4.267-0.853-5.973-2.56c-3.413-3.413-3.413-8.533,0-11.947l17.92-17.92
		c3.413-3.413,8.533-3.413,11.947,0s3.413,8.533,0,11.947l-17.92,17.92C60.44,100.728,57.88,101.581,56.173,101.581z"/>
	<path d="M74.093,144.248c-2.56,0-4.267-0.853-5.973-2.56c-3.413-3.413-3.413-8.533,0-11.947l29.867-29.867
		c3.413-3.413,8.533-3.413,11.947,0s3.413,8.533,0,11.947l-29.867,29.867C78.36,143.395,75.8,144.248,74.093,144.248z"/>
	<path d="M115.907,162.168c-2.56,0-4.267-0.853-5.973-2.56c-3.413-3.413-3.413-8.533,0-11.947l17.92-17.92
		c3.413-3.413,8.533-3.413,11.947,0c3.413,3.413,3.413,8.533,0,11.947l-17.92,17.92
		C120.173,161.315,118.467,162.168,115.907,162.168z"/>
	<path d="M134.68,203.981c-2.56,0-4.267-0.853-5.973-2.56c-3.413-3.413-3.413-8.533,0-11.947l29.867-29.867
		c3.413-3.413,8.533-3.413,11.947,0s3.413,8.533,0,11.947l-29.867,29.867C138.947,203.128,136.387,203.981,134.68,203.981z"/>
	<path d="M176.493,221.901c-2.56,0-4.267-0.853-5.973-2.56c-3.413-3.413-3.413-8.533,0-11.947l17.92-17.92
		c3.413-3.413,8.533-3.413,11.947,0s3.413,8.533,0,11.947l-17.92,17.92C180.76,221.901,179.053,221.901,176.493,221.901z"/>
	<path d="M194.413,264.568c-2.56,0-4.267-0.853-5.973-2.56c-3.413-3.413-3.413-8.533,0-11.947l29.867-29.867
		c3.413-3.413,8.533-3.413,11.947,0c3.413,3.413,3.413,8.533,0,11.947l-29.867,29.867
		C198.68,263.715,196.973,264.568,194.413,264.568z"/>
	<path d="M237.08,282.488c-2.56,0-4.267-0.853-5.973-2.56c-3.413-3.413-3.413-8.533,0-11.947l17.92-17.92
		c3.413-3.413,8.533-3.413,11.947,0s3.413,8.533,0,11.947l-17.92,17.92C241.347,281.635,238.787,282.488,237.08,282.488z"/>
	<path d="M255,325.155c-2.56,0-4.267-0.853-5.973-2.56c-3.413-3.413-3.413-8.533,0-11.947l29.867-29.867
		c3.413-3.413,8.533-3.413,11.947,0c3.413,3.413,3.413,8.533,0,11.947l-29.867,29.867C259.267,324.301,257.56,325.155,255,325.155z"
		/>
	<path d="M297.667,343.075c-2.56,0-4.267-0.853-5.973-2.56c-3.413-3.413-3.413-8.533,0-11.947l17.92-17.92
		c3.413-3.413,8.533-3.413,11.947,0c3.413,3.413,3.413,8.533,0,11.947l-17.92,17.92
		C301.933,342.221,299.373,343.075,297.667,343.075z"/>
	<path d="M315.587,384.888c-2.56,0-4.267-0.853-5.973-2.56c-3.413-3.413-3.413-8.533,0-11.947l29.867-29.867
		c3.413-3.413,8.533-3.413,11.947,0c3.413,3.413,3.413,8.533,0,11.947l-29.867,29.867
		C319.853,384.035,317.293,384.888,315.587,384.888z"/>
	<path d="M357.4,403.661c-2.56,0-4.267-0.853-5.973-2.56c-3.413-3.413-3.413-8.533,0-11.947l17.92-17.92
		c3.413-3.413,8.533-3.413,11.947,0c3.413,3.413,3.413,8.533,0,11.947l-17.92,17.92C361.667,402.808,359.96,403.661,357.4,403.661z"
		/>
	<path d="M375.32,445.475c-2.56,0-4.267-0.853-5.973-2.56c-3.413-3.413-3.413-8.533,0-11.947l30.72-29.867
		c3.413-3.413,8.533-3.413,11.947,0c3.413,3.413,3.413,8.533,0,11.947l-29.867,29.867C380.44,444.621,377.88,445.475,375.32,445.475
		z"/>
	<path d="M417.987,463.395c-2.56,0-4.267-0.853-5.973-2.56c-3.413-3.413-3.413-8.533,0-11.947l17.92-17.92
		c3.413-3.413,8.533-3.413,11.947,0c3.413,3.413,3.413,8.533,0,11.947l-17.92,17.92
		C422.253,462.541,419.693,463.395,417.987,463.395z"/>
</g>
<g>
</g>
<g>
</g>
<g>
</g>
<g>
</g>
<g>
</g>
<g>
</g>
<g>
</g>
<g>
</g>
<g>
</g>
<g>
</g>
<g>
</g>
<g>
</g>
<g>
</g>
<g>
</g>
<g>
</g>
</svg>
